<?xml version="1.0" encoding="UTF-8" standalone="no"?>
<!-- Created with Inkscape (http://www.inkscape.org/) -->

<svg
   width="210mm"
   height="297mm"
   viewBox="0 0 210 297"
   version="1.1"
   id="svg1"
   inkscape:version="1.4.2 (ebf0e940d0, 2025-05-08)"
   sodipodi:docname="logo.svg"
   xmlns:inkscape="http://www.inkscape.org/namespaces/inkscape"
   xmlns:sodipodi="http://sodipodi.sourceforge.net/DTD/sodipodi-0.dtd"
   xmlns="http://www.w3.org/2000/svg"
   xmlns:svg="http://www.w3.org/2000/svg">
  <sodipodi:namedview
     id="namedview1"
     pagecolor="#ffffff"
     bordercolor="#000000"
     borderopacity="0.25"
     inkscape:showpageshadow="2"
     inkscape:pageopacity="0.0"
     inkscape:pagecheckerboard="0"
     inkscape:deskcolor="#d1d1d1"
     inkscape:document-units="mm"
     inkscape:zoom="0.49222138"
     inkscape:cx="384.98937"
     inkscape:cy="477.42745"
     inkscape:window-width="1600"
     inkscape:window-height="900"
     inkscape:window-x="0"
     inkscape:window-y="0"
     inkscape:window-maximized="1"
     inkscape:current-layer="svg1" />
  <defs
     id="defs1" />
  <g
     inkscape:label="Layer 1"
     inkscape:groupmode="layer"
     id="layer1" />
  <path
     d="m 73.006749,174.49765 2.538767,-1.18275 v -2.36551 l -2.539128,-1.18277 -2.539127,1.18277 v 2.36521 z"
     style="fill:#000000;fill-opacity:1;stroke-width:0.627451"
     id="path573" />
  <path
     d="m 70.467261,170.94939 2.539127,-1.18277 -2.539127,-1.18276 z"
     style="fill:#000000;fill-opacity:1;stroke-width:0.627451"
     id="path572" />
  <path
     d="m 111.09114,180.41115 v -2.36579 l -2.53912,-1.18276 -2.53842,1.18245 v 2.3661 l 2.53842,1.18275 z"
     style="fill:#000000;fill-opacity:1;stroke-width:0.627451"
     id="path571" />
  <path
     d="m 113.63027,179.22838 -2.53913,-1.18302 v 2.36579 z"
     style="fill:#000000;fill-opacity:1;stroke-width:0.627451"
     id="path570" />
  <path
     d="m 111.09114,175.67982 -2.53912,1.18278 2.53912,1.18276 z"
     style="fill:#000000;fill-opacity:1;stroke-width:0.627451"
     id="path569" />
  <path
     d="m 116.1694,178.04563 v -2.3655 l -2.5395,-1.18306 -2.53876,1.18275 v 2.36554 l 2.53913,1.18302 z"
     style="fill:#000000;fill-opacity:1;stroke-width:0.627451"
     id="path568" />
  <path
     d="m 118.70852,176.86287 -2.53912,-1.18274 v 2.3655 z"
     style="fill:#000000;fill-opacity:1;stroke-width:0.627451"
     id="path567" />
  <path
     d="m 116.1694,173.31432 -2.5395,1.18275 2.5395,1.18306 z"
     style="fill:#000000;fill-opacity:1;stroke-width:0.627451"
     id="path566" />
  <path
     d="m 121.24728,175.68013 v -2.36523 l -2.53948,-1.18307 -2.5384,1.18249 v 2.36581 l 2.53912,1.18274 z"
     style="fill:#000000;fill-opacity:1;stroke-width:0.627451"
     id="path565" />
  <path
     d="m 123.78641,174.49737 -2.53913,-1.18247 v 2.36523 z"
     style="fill:#000000;fill-opacity:1;stroke-width:0.627451"
     id="path564" />
  <path
     d="m 121.24728,170.9488 -2.53948,1.18303 2.53948,1.18307 z"
     style="fill:#000000;fill-opacity:1;stroke-width:0.627451"
     id="path563" />
  <path
     d="m 128.86432,172.13215 -2.5395,-1.18305 v 2.3658 z"
     style="fill:#000000;fill-opacity:1;stroke-width:0.627451"
     id="path562" />
  <path
     d="m 126.32482,173.3149 v -2.3658 l -2.53912,-1.18276 -2.53842,1.18246 v 2.3661 l 2.53913,1.18247 z"
     style="fill:#000000;fill-opacity:1;stroke-width:0.627451"
     id="path561" />
  <path
     d="m 126.32482,168.58358 -2.53912,1.18276 2.53912,1.18276 z"
     style="fill:#000000;fill-opacity:1;stroke-width:0.627451"
     id="path560" />
  <path
     d="m 131.40307,168.58358 v 2.36581 l 2.5395,-1.18277 z"
     style="fill:#000000;fill-opacity:1;stroke-width:0.627451"
     id="path559" />
  <path
     d="m 131.40307,168.58358 -2.53913,-1.18275 -2.53912,1.18275 v 2.36552 l 2.5395,1.18305 2.53875,-1.18276 z"
     style="fill:#000000;fill-opacity:1;stroke-width:0.627451"
     id="path558" />
  <path
     d="m 131.40307,166.21808 -2.53913,1.18275 2.53913,1.18275 z"
     style="fill:#000000;fill-opacity:1;stroke-width:0.627451"
     id="path557" />
  <path
     d="m 136.48097,166.21835 -2.53913,-1.18276 -2.53877,1.18249 v 2.3655 l 2.5395,1.18304 2.5384,-1.18245 z"
     style="fill:#000000;fill-opacity:1;stroke-width:0.627451"
     id="path556" />
  <path
     d="m 131.40307,163.85283 v 2.36525 l 2.53877,-1.18249 z"
     style="fill:#000000;fill-opacity:1;stroke-width:0.627451"
     id="path555" />
  <path
     d="m 136.48097,163.85255 -2.53913,1.18304 2.53913,1.18276 z"
     style="fill:#000000;fill-opacity:1;stroke-width:0.627451"
     id="path554" />
  <path
     d="m 131.40307,159.12182 v 2.36552 2.36549 l 2.53877,1.18276 2.53913,-1.18304 v -2.36521 l -2.53876,-1.18276 z"
     style="fill:#000000;fill-opacity:1;stroke-width:0.627451"
     id="path553" />
  <path
     d="m 136.48097,159.12211 -2.53876,1.18247 2.53876,1.18276 z"
     style="fill:#000000;fill-opacity:1;stroke-width:0.627451"
     id="path552" />
  <path
     d="m 136.48097,156.7566 -2.53876,-1.18246 -2.53914,1.18276 v 2.36492 l 2.53914,1.18276 2.53876,-1.18247 z"
     style="fill:#000000;fill-opacity:1;stroke-width:0.627451"
     id="path551" />
  <path
     d="m 136.48097,154.39139 -2.53876,1.18275 2.53876,1.18246 z"
     style="fill:#000000;fill-opacity:1;stroke-width:0.627451"
     id="path550" />
  <path
     d="m 136.48097,152.02616 -2.53913,-1.18274 -2.53877,1.18245 v 2.36552 l 2.53914,1.18275 2.53876,-1.18275 z"
     style="fill:#000000;fill-opacity:1;stroke-width:0.627451"
     id="path549" />
  <path
     d="m 131.40307,154.39139 v 2.36551 l 2.53914,-1.18276 z"
     style="fill:#000000;fill-opacity:1;stroke-width:0.627451"
     id="path548" />
  <path
     d="m 131.40307,152.02587 -2.53913,1.18276 2.53913,1.18276 z"
     style="fill:#000000;fill-opacity:1;stroke-width:0.627451"
     id="path547" />
  <path
     d="m 126.32482,156.75632 v 2.36609 l 2.53985,-1.18306 z"
     style="fill:#000000;fill-opacity:1;stroke-width:0.627451"
     id="path546" />
  <path
     d="m 126.32482,154.39139 -2.53841,1.18247 2.53841,1.18246 z"
     style="fill:#000000;fill-opacity:1;stroke-width:0.627451"
     id="path545" />
  <path
     d="m 131.40307,154.39139 -2.53913,-1.18276 -2.53912,1.18276 v 2.36493 l 2.53985,1.18303 2.5384,-1.18245 z"
     style="fill:#000000;fill-opacity:1;stroke-width:0.627451"
     id="path544" />
  <path
     d="m 126.32482,156.75632 -2.53841,-1.18246 -2.53913,1.18274 v 2.36551 l 2.53913,1.18276 2.53841,-1.18246 z"
     style="fill:#000000;fill-opacity:1;stroke-width:0.627451"
     id="path543" />
  <path
     d="m 121.24728,159.12211 v 2.36551 l 2.53913,-1.18275 z"
     style="fill:#000000;fill-opacity:1;stroke-width:0.627451"
     id="path542" />
  <path
     d="m 121.24728,156.7566 -2.53912,1.18275 2.53912,1.18276 z"
     style="fill:#000000;fill-opacity:1;stroke-width:0.627451"
     id="path541" />
  <path
     d="m 121.24728,159.12211 -2.53912,-1.18276 -2.53876,1.18247 v 2.36552 l 2.53912,1.18304 2.53876,-1.18276 z"
     style="fill:#000000;fill-opacity:1;stroke-width:0.627451"
     id="path540" />
  <path
     d="m 116.1694,161.48734 v 2.36581 l 2.53912,-1.18277 z"
     style="fill:#000000;fill-opacity:1;stroke-width:0.627451"
     id="path539" />
  <path
     d="m 116.1694,159.12182 -2.53913,1.18276 2.53913,1.18276 z"
     style="fill:#000000;fill-opacity:1;stroke-width:0.627451"
     id="path538" />
  <path
     d="m 113.63027,165.0359 -2.53913,-1.18307 v 2.36582 z"
     style="fill:#000000;fill-opacity:1;stroke-width:0.627451"
     id="path537" />
  <path
     d="m 116.1694,161.48734 -2.53913,-1.18276 -2.53913,1.18304 v 2.36521 l 2.53913,1.18307 2.53913,-1.18275 z"
     style="fill:#000000;fill-opacity:1;stroke-width:0.627451"
     id="path536" />
  <path
     d="m 111.09114,166.21865 v -2.36582 l -2.53912,-1.18245 -2.53842,1.18245 v 2.36582 l 2.53877,1.18248 z"
     style="fill:#000000;fill-opacity:1;stroke-width:0.627451"
     id="path535" />
  <path
     d="m 108.55202,162.67038 -2.53842,-1.18276 v 2.36521 z"
     style="fill:#000000;fill-opacity:1;stroke-width:0.627451"
     id="path534" />
  <path
     d="m 108.55273,157.93935 -2.53913,1.18276 v 2.36551 l 2.53842,1.18276 2.53912,1.18245 v -2.36521 -2.3658 z"
     style="fill:#000000;fill-opacity:1;stroke-width:0.627451"
     id="path533" />
  <path
     d="m 106.0136,156.7566 v 2.36551 l 2.53913,-1.18276 z"
     style="fill:#000000;fill-opacity:1;stroke-width:0.627451"
     id="path532" />
  <path
     d="m 111.09114,156.7569 -2.53841,1.18245 2.53841,1.18247 z"
     style="fill:#000000;fill-opacity:1;stroke-width:0.627451"
     id="path531" />
  <path
     d="m 108.55237,153.20863 -2.53877,1.18247 v 2.3655 l 2.53913,1.18275 2.53841,-1.18245 v -2.36551 z"
     style="fill:#000000;fill-opacity:1;stroke-width:0.627451"
     id="path530" />
  <path
     d="m 106.0136,152.02616 v 2.36494 l 2.53877,-1.18247 z"
     style="fill:#000000;fill-opacity:1;stroke-width:0.627451"
     id="path529" />
  <path
     d="m 108.55237,153.20863 2.53877,1.18276 v -2.36552 z"
     style="fill:#000000;fill-opacity:1;stroke-width:0.627451"
     id="path528" />
  <path
     d="m 133.94221,136.65032 -2.53914,1.18276 v 2.36581 l 2.53877,1.18276 2.53913,-1.18276 v -2.36581 z"
     style="fill:#000000;fill-opacity:1;stroke-width:0.627451"
     id="path527" />
  <path
     d="m 131.40307,140.19889 v 2.36521 l 2.53877,-1.18245 z"
     style="fill:#000000;fill-opacity:1;stroke-width:0.627451"
     id="path526" />
  <path
     d="m 128.86359,139.01613 2.53948,1.18276 v -2.36581 z"
     style="fill:#000000;fill-opacity:1;stroke-width:0.627451"
     id="path525" />
  <path
     d="m 128.86359,139.01613 -2.53877,1.18248 v 2.36521 l 2.5395,1.18305 2.53875,-1.18277 v -2.36521 z"
     style="fill:#000000;fill-opacity:1;stroke-width:0.627451"
     id="path524" />
  <path
     d="m 126.32482,142.56382 v 2.3658 l 2.5395,-1.18275 z"
     style="fill:#000000;fill-opacity:1;stroke-width:0.627451"
     id="path523" />
  <path
     d="m 123.78606,141.38134 2.53876,1.18248 v -2.36521 z"
     style="fill:#000000;fill-opacity:1;stroke-width:0.627451"
     id="path522" />
  <path
     d="m 123.78606,141.38134 -2.53878,1.18248 v 2.36609 l 2.53842,1.18246 2.53912,-1.18275 v -2.3658 z"
     style="fill:#000000;fill-opacity:1;stroke-width:0.627451"
     id="path521" />
  <path
     d="m 121.24728,144.92991 v 2.36495 l 2.53842,-1.18249 z"
     style="fill:#000000;fill-opacity:1;stroke-width:0.627451"
     id="path520" />
  <path
     d="m 118.7078,143.74687 2.53948,1.18304 v -2.36609 z"
     style="fill:#000000;fill-opacity:1;stroke-width:0.627451"
     id="path519" />
  <path
     d="m 118.7078,143.74687 -2.5384,1.18246 v 2.36579 l 2.53876,1.18249 2.53912,-1.18275 v -2.36495 z"
     style="fill:#000000;fill-opacity:1;stroke-width:0.627451"
     id="path518" />
  <path
     d="m 116.1694,147.29512 v 2.36523 l 2.53876,-1.18274 z"
     style="fill:#000000;fill-opacity:1;stroke-width:0.627451"
     id="path517" />
  <path
     d="m 113.63027,146.11209 2.53913,1.18303 v -2.36579 z"
     style="fill:#000000;fill-opacity:1;stroke-width:0.627451"
     id="path516" />
  <path
     d="m 111.09114,149.66007 v 2.3658 l 2.53949,-1.18276 z"
     style="fill:#000000;fill-opacity:1;stroke-width:0.627451"
     id="path515" />
  <path
     d="m 113.63027,146.11209 -2.53913,1.18277 v 2.36521 l 2.53949,1.18304 2.53877,-1.18276 v -2.36523 z"
     style="fill:#000000;fill-opacity:1;stroke-width:0.627451"
     id="path514" />
  <path
     d="m 108.55237,148.47761 2.53877,1.18246 v -2.36521 z"
     style="fill:#000000;fill-opacity:1;stroke-width:0.627451"
     id="path513" />
  <path
     d="m 108.55237,148.47761 -2.53877,1.18246 v 2.36609 l 2.53877,1.18247 2.53877,-1.18276 v -2.3658 z"
     style="fill:#000000;fill-opacity:1;stroke-width:0.627451"
     id="path512" />
  <path
     d="m 90.779201,161.48762 2.539127,-1.18275 -2.539127,-1.18276 z"
     style="fill:#000000;fill-opacity:1;stroke-width:0.627451"
     id="path511" />
  <path
     d="m 85.701304,161.48762 2.539129,1.18276 2.538768,-1.18276 v -2.36551 l -2.538768,-1.18276 -2.539129,1.18276 z"
     style="fill:#000000;fill-opacity:1;stroke-width:0.627451"
     id="path510" />
  <path
     d="m 85.701304,159.12211 2.539129,-1.18276 -2.539129,-1.18275 z"
     style="fill:#000000;fill-opacity:1;stroke-width:0.627451"
     id="path509" />
  <path
     d="m 85.701304,161.48762 v -2.36551 l -2.539126,1.18276 z"
     style="fill:#000000;fill-opacity:1;stroke-width:0.627451"
     id="path508" />
  <path
     d="m 80.623411,159.12211 2.538767,1.18276 2.539126,-1.18276 v -2.36551 l -2.538766,-1.18246 -2.539127,1.18276 z"
     style="fill:#000000;fill-opacity:1;stroke-width:0.627451"
     id="path507" />
  <path
     d="m 80.623411,159.12211 v -2.36521 l -2.538767,1.18245 z"
     style="fill:#000000;fill-opacity:1;stroke-width:0.627451"
     id="path506" />
  <path
     d="m 78.084644,153.20863 -2.539128,1.18276 v 2.36551 l 2.539128,1.18245 2.538767,-1.18245 2.539127,-1.18276 -2.539127,-1.18304 z"
     style="fill:#000000;fill-opacity:1;stroke-width:0.627451"
     id="path505" />
  <path
     d="m 75.545516,154.39139 2.539128,-1.18276 -2.539128,-1.18276 z"
     style="fill:#000000;fill-opacity:1;stroke-width:0.627451"
     id="path504" />
  <path
     d="m 75.545516,170.94939 v -2.36553 l -2.539128,1.18276 z"
     style="fill:#000000;fill-opacity:1;stroke-width:0.627451"
     id="path503" />
  <path
     d="m 70.467261,168.58386 2.539127,1.18276 2.539128,-1.18276 v -2.36521 l -2.539128,-1.18306 -2.539127,1.18276 z"
     style="fill:#000000;fill-opacity:1;stroke-width:0.627451"
     id="path502" />
  <path
     d="m 70.467261,166.21835 2.539127,-1.18276 -2.539127,-1.18276 z"
     style="fill:#000000;fill-opacity:1;stroke-width:0.627451"
     id="path501" />
  <path
     d="m 75.545516,166.21865 v -2.36582 l -2.539128,1.18276 z"
     style="fill:#000000;fill-opacity:1;stroke-width:0.627451"
     id="path500" />
  <path
     d="m 75.545516,161.48734 v -2.36523 l -2.538767,1.18276 z"
     style="fill:#000000;fill-opacity:1;stroke-width:0.627451"
     id="path499" />
  <path
     d="m 70.467261,161.48762 2.539488,-1.18275 -2.539488,-1.18305 z"
     style="fill:#000000;fill-opacity:1;stroke-width:0.627451"
     id="path498" />
  <path
     d="m 70.467261,163.85283 2.539127,1.18276 2.539128,-1.18276 v -2.36549 l -2.538767,-1.18247 -2.539488,1.18275 z"
     style="fill:#000000;fill-opacity:1;stroke-width:0.627451"
     id="path497" />
  <path
     d="m 95.857457,149.66035 v 2.36552 l 2.53877,1.18247 2.539133,-1.18277 v -2.36522 l -2.539133,-1.18246 z"
     style="fill:#000000;fill-opacity:1;stroke-width:0.627451"
     id="path496" />
  <path
     d="m 93.318689,150.84311 2.538768,1.18276 v -2.36552 z"
     style="fill:#000000;fill-opacity:1;stroke-width:0.627451"
     id="path495" />
  <path
     d="m 95.857457,149.66035 2.53877,-1.18246 -2.53877,-1.18277 z"
     style="fill:#000000;fill-opacity:1;stroke-width:0.627451"
     id="path494" />
  <path
     d="m 90.779201,147.29512 v 2.36523 l 2.539488,1.18276 2.538768,-1.18276 v -2.36523 l -2.539129,-1.18275 z"
     style="fill:#000000;fill-opacity:1;stroke-width:0.627451"
     id="path493" />
  <path
     d="m 88.240433,148.47761 2.538768,1.18274 v -2.36523 z"
     style="fill:#000000;fill-opacity:1;stroke-width:0.627451"
     id="path492" />
  <path
     d="m 90.779201,147.29512 2.539127,-1.18275 -2.539127,-1.18275 z"
     style="fill:#000000;fill-opacity:1;stroke-width:0.627451"
     id="path491" />
  <path
     d="m 85.701304,144.92962 v 2.36524 l 2.539129,1.18275 2.538768,-1.18249 v -2.3655 l -2.539129,-1.18275 z"
     style="fill:#000000;fill-opacity:1;stroke-width:0.627451"
     id="path490" />
  <path
     d="m 83.162538,146.11209 2.538766,1.18277 v -2.36524 z"
     style="fill:#000000;fill-opacity:1;stroke-width:0.627451"
     id="path489" />
  <path
     d="m 85.701304,144.92962 2.538768,-1.18275 -2.538768,-1.18277 z"
     style="fill:#000000;fill-opacity:1;stroke-width:0.627451"
     id="path488" />
  <path
     d="m 80.623411,142.5641 v 2.36552 l 2.539127,1.18247 2.538766,-1.18247 v -2.36552 l -2.539126,-1.18276 z"
     style="fill:#000000;fill-opacity:1;stroke-width:0.627451"
     id="path487" />
  <path
     d="m 78.084284,143.74687 2.539127,1.18275 v -2.36552 z"
     style="fill:#000000;fill-opacity:1;stroke-width:0.627451"
     id="path486" />
  <path
     d="m 80.623411,142.5641 2.538767,-1.18276 -2.538767,-1.18245 z"
     style="fill:#000000;fill-opacity:1;stroke-width:0.627451"
     id="path485" />
  <path
     d="m 75.545516,140.19861 v 2.36549 l 2.538768,1.18277 2.539127,-1.18277 v -2.36521 l -2.539127,-1.18276 z"
     style="fill:#000000;fill-opacity:1;stroke-width:0.627451"
     id="path484" />
  <path
     d="m 75.545516,140.19861 2.538768,-1.18248 -2.538768,-1.18275 z"
     style="fill:#000000;fill-opacity:1;stroke-width:0.627451"
     id="path483" />
  <path
     d="m 70.467261,159.12182 2.539488,1.18305 2.538767,-1.18276 v -2.36521 l -2.539128,-1.18276 -2.539127,1.18276 z"
     style="fill:#000000;fill-opacity:1;stroke-width:0.627451"
     id="path482" />
  <path
     d="m 70.467261,156.7569 2.539127,-1.18276 -2.539127,-1.18275 z"
     style="fill:#000000;fill-opacity:1;stroke-width:0.627451"
     id="path481" />
  <path
     d="m 75.545516,156.7569 v -2.36551 l -2.539128,1.18275 z"
     style="fill:#000000;fill-opacity:1;stroke-width:0.627451"
     id="path480" />
  <path
     d="m 70.467261,154.39139 2.539127,1.18275 2.539128,-1.18275 v -2.36552 l -2.539128,-1.18276 -2.539127,1.18276 z"
     style="fill:#000000;fill-opacity:1;stroke-width:0.627451"
     id="path479" />
  <path
     d="m 75.545516,152.02587 v -2.36552 l -2.539128,1.18276 z"
     style="fill:#000000;fill-opacity:1;stroke-width:0.627451"
     id="path478" />
  <path
     d="m 70.467261,152.02587 2.539127,-1.18276 -2.539127,-1.18276 z"
     style="fill:#000000;fill-opacity:1;stroke-width:0.627451"
     id="path477" />
  <path
     d="m 75.545516,147.29512 v -2.3655 l -2.539128,1.18275 z"
     style="fill:#000000;fill-opacity:1;stroke-width:0.627451"
     id="path476" />
  <path
     d="m 70.467261,147.29512 2.539127,-1.18275 -2.539127,-1.18275 z"
     style="fill:#000000;fill-opacity:1;stroke-width:0.627451"
     id="path475" />
  <path
     d="m 70.467261,149.66035 2.539127,1.18276 2.539128,-1.18276 v -2.36523 l -2.539128,-1.18275 -2.539127,1.18275 z"
     style="fill:#000000;fill-opacity:1;stroke-width:0.627451"
     id="path474" />
  <path
     d="m 73.006388,141.38134 2.539128,1.18276 v -2.36549 z"
     style="fill:#000000;fill-opacity:1;stroke-width:0.627451"
     id="path473" />
  <path
     d="m 70.467261,144.92962 2.539127,1.18275 2.539128,-1.18275 v -2.36552 l -2.539128,-1.18276 -2.539127,1.18276 z"
     style="fill:#000000;fill-opacity:1;stroke-width:0.627451"
     id="path472" />
  <path
     d="m 70.467261,142.5641 2.539127,-1.18276 -2.539127,-1.18273 z"
     style="fill:#000000;fill-opacity:1;stroke-width:0.627451"
     id="path471" />
  <path
     d="m 70.467261,137.83338 v 2.36523 l 2.539127,1.18273 2.539128,-1.18273 v -2.36523 l -2.539128,-1.18275 z"
     style="fill:#000000;fill-opacity:1;stroke-width:0.627451"
     id="path470" />
  <path
     d="m 103.47413,141.38134 -2.53877,1.18276 v 2.36523 l 2.53949,1.18276 2.53875,-1.18276 v -2.36523 z"
     style="fill:#000000;fill-opacity:1;stroke-width:0.627451"
     id="path469" />
  <path
     d="m 106.0136,142.5641 v 2.36523 l 2.53877,-1.18246 z"
     style="fill:#000000;fill-opacity:1;stroke-width:0.627451"
     id="path468" />
  <path
     d="m 103.47413,141.38134 2.53947,1.18276 v -2.36549 z"
     style="fill:#000000;fill-opacity:1;stroke-width:0.627451"
     id="path467" />
  <path
     d="m 111.09114,140.19889 v 2.36521 l 2.53876,-1.18245 z"
     style="fill:#000000;fill-opacity:1;stroke-width:0.627451"
     id="path466" />
  <path
     d="m 108.55165,139.01613 -2.53805,1.18248 v 2.36549 l 2.53877,1.18277 2.53877,-1.18277 v -2.36521 z"
     style="fill:#000000;fill-opacity:1;stroke-width:0.627451"
     id="path465" />
  <path
     d="m 108.55165,139.01613 2.53949,1.18276 v -2.36551 z"
     style="fill:#000000;fill-opacity:1;stroke-width:0.627451"
     id="path464" />
  <path
     d="m 113.63027,136.65063 -2.53913,1.18275 v 2.36551 l 2.53876,1.18276 2.5395,-1.18304 v -2.36523 z"
     style="fill:#000000;fill-opacity:1;stroke-width:0.627451"
     id="path463" />
  <path
     d="m 116.1694,137.83338 v 2.36523 l 2.53876,-1.18248 z"
     style="fill:#000000;fill-opacity:1;stroke-width:0.627451"
     id="path462" />
  <path
     d="m 113.63027,136.65063 2.53913,1.18275 v -2.3658 z"
     style="fill:#000000;fill-opacity:1;stroke-width:0.627451"
     id="path461" />
  <path
     d="m 118.7078,134.2851 -2.5384,1.18248 v 2.3658 l 2.53876,1.18275 2.53912,-1.18275 v -2.36522 z"
     style="fill:#000000;fill-opacity:1;stroke-width:0.627451"
     id="path460" />
  <path
     d="m 121.24728,135.46816 v 2.36522 l 2.53878,-1.18275 z"
     style="fill:#000000;fill-opacity:1;stroke-width:0.627451"
     id="path459" />
  <path
     d="m 118.7078,134.2851 2.53948,1.18306 v -2.3658 z"
     style="fill:#000000;fill-opacity:1;stroke-width:0.627451"
     id="path458" />
  <path
     d="m 123.78641,131.91959 -2.53913,1.18277 v 2.3658 l 2.53878,1.18247 2.53876,-1.18247 v -2.3661 z"
     style="fill:#000000;fill-opacity:1;stroke-width:0.627451"
     id="path457" />
  <path
     d="m 126.32482,133.10206 v 2.3661 l 2.5395,-1.18306 z"
     style="fill:#000000;fill-opacity:1;stroke-width:0.627451"
     id="path456" />
  <path
     d="m 128.86394,129.55438 -2.53912,1.18275 v 2.36493 l 2.5395,1.18304 2.53875,-1.18246 v -2.36551 z"
     style="fill:#000000;fill-opacity:1;stroke-width:0.627451"
     id="path455" />
  <path
     d="m 126.32482,128.37161 v 2.36552 l 2.53912,-1.18275 z"
     style="fill:#000000;fill-opacity:1;stroke-width:0.627451"
     id="path454" />
  <path
     d="m 123.78641,131.91959 2.53841,1.18247 v -2.36493 z"
     style="fill:#000000;fill-opacity:1;stroke-width:0.627451"
     id="path453" />
  <path
     d="m 123.78606,127.18886 -2.53878,1.18275 v 2.36523 l 2.53913,1.18275 2.53841,-1.18246 v -2.36552 z"
     style="fill:#000000;fill-opacity:1;stroke-width:0.627451"
     id="path452" />
  <path
     d="m 121.24728,126.00639 v 2.36522 l 2.53878,-1.18275 z"
     style="fill:#000000;fill-opacity:1;stroke-width:0.627451"
     id="path451" />
  <path
     d="m 118.70852,129.55408 2.53876,1.18276 v -2.36523 z"
     style="fill:#000000;fill-opacity:1;stroke-width:0.627451"
     id="path450" />
  <path
     d="m 118.7078,124.82336 -2.5384,1.18274 v 2.36522 l 2.53912,1.18276 2.53876,-1.18247 v -2.36522 z"
     style="fill:#000000;fill-opacity:1;stroke-width:0.627451"
     id="path449" />
  <path
     d="m 113.63027,127.18886 2.53913,1.18246 v -2.36522 z"
     style="fill:#000000;fill-opacity:1;stroke-width:0.627451"
     id="path448" />
  <path
     d="m 116.1694,123.64089 v 2.36521 l 2.5384,-1.18274 z"
     style="fill:#000000;fill-opacity:1;stroke-width:0.627451"
     id="path447" />
  <path
     d="m 108.55237,124.82336 2.53877,1.18246 v -2.36493 z"
     style="fill:#000000;fill-opacity:1;stroke-width:0.627451"
     id="path446" />
  <path
     d="m 113.6299,122.45813 -2.53876,1.18276 v 2.36493 l 2.53913,1.18304 2.53913,-1.18276 v -2.36521 z"
     style="fill:#000000;fill-opacity:1;stroke-width:0.627451"
     id="path445" />
  <path
     d="m 108.55202,120.09261 -5.07754,2.36523 2.53912,1.18276 v 0 l 2.53877,1.18276 2.53877,-1.18247 v 0 l 2.53876,-1.18276 z"
     style="fill:#000000;fill-opacity:1;stroke-width:0.627451"
     id="path444" />
  <path
     d="m 100.93536,140.19861 v 2.36549 l 2.53877,-1.18276 z"
     style="fill:#000000;fill-opacity:1;stroke-width:0.627451"
     id="path443" />
  <path
     d="m 98.396587,143.74659 2.538773,1.18274 v -2.36523 z"
     style="fill:#000000;fill-opacity:1;stroke-width:0.627451"
     id="path442" />
  <path
     d="m 95.857457,140.19861 v 2.36521 l 2.53913,1.18277 2.538773,-1.18249 v -2.36549 l -2.539133,-1.18277 z"
     style="fill:#000000;fill-opacity:1;stroke-width:0.627451"
     id="path441" />
  <path
     d="m 95.857457,140.19861 2.53877,-1.18277 -2.53877,-1.18246 z"
     style="fill:#000000;fill-opacity:1;stroke-width:0.627451"
     id="path440" />
  <path
     d="m 93.318689,141.38106 2.538768,1.18276 v -2.36521 z"
     style="fill:#000000;fill-opacity:1;stroke-width:0.627451"
     id="path439" />
  <path
     d="m 90.779201,137.83338 v 2.36492 l 2.539488,1.18276 2.538768,-1.18245 v -2.36523 l -2.539129,-1.18275 z"
     style="fill:#000000;fill-opacity:1;stroke-width:0.627451"
     id="path438" />
  <path
     d="m 88.240794,139.01584 2.538407,1.18246 v -2.36492 z"
     style="fill:#000000;fill-opacity:1;stroke-width:0.627451"
     id="path437" />
  <path
     d="m 90.779201,137.83338 2.539127,-1.18275 -2.539127,-1.18305 z"
     style="fill:#000000;fill-opacity:1;stroke-width:0.627451"
     id="path436" />
  <path
     d="m 85.701304,135.46786 v 2.36494 l 2.53949,1.18304 2.538407,-1.18246 v -2.3658 l -2.538768,-1.18248 z"
     style="fill:#000000;fill-opacity:1;stroke-width:0.627451"
     id="path435" />
  <path
     d="m 85.701304,135.46786 2.539129,-1.18276 -2.539129,-1.18274 z"
     style="fill:#000000;fill-opacity:1;stroke-width:0.627451"
     id="path434" />
  <path
     d="m 83.162899,136.65032 2.538405,1.18248 v -2.36494 z"
     style="fill:#000000;fill-opacity:1;stroke-width:0.627451"
     id="path433" />
  <path
     d="m 80.623411,133.10236 v 2.36522 l 2.539488,1.18274 2.538405,-1.18246 v -2.3655 l -2.538766,-1.18277 z"
     style="fill:#000000;fill-opacity:1;stroke-width:0.627451"
     id="path432" />
  <path
     d="m 78.085004,134.28482 2.538407,1.18276 v -2.36522 z"
     style="fill:#000000;fill-opacity:1;stroke-width:0.627451"
     id="path431" />
  <path
     d="m 75.545516,130.73713 v 2.36493 l 2.539488,1.18276 2.538407,-1.18246 v -2.36552 l -2.538767,-1.18246 z"
     style="fill:#000000;fill-opacity:1;stroke-width:0.627451"
     id="path430" />
  <path
     d="m 80.623411,133.10236 2.539127,-1.18277 -2.539127,-1.18275 z"
     style="fill:#000000;fill-opacity:1;stroke-width:0.627451"
     id="path429" />
  <path
     d="m 78.084644,129.55438 2.538767,1.18246 v -2.36523 z"
     style="fill:#000000;fill-opacity:1;stroke-width:0.627451"
     id="path428" />
  <path
     d="m 85.701304,130.73713 2.538768,-1.18275 -2.538768,-1.18248 z"
     style="fill:#000000;fill-opacity:1;stroke-width:0.627451"
     id="path427" />
  <path
     d="m 80.623411,128.37161 v 2.36523 l 2.539127,1.18275 2.538766,-1.18246 v -2.36523 l -2.539126,-1.18274 z"
     style="fill:#000000;fill-opacity:1;stroke-width:0.627451"
     id="path426" />
  <path
     d="m 83.162178,127.18916 2.539126,1.18274 v -2.3658 z"
     style="fill:#000000;fill-opacity:1;stroke-width:0.627451"
     id="path425" />
  <path
     d="m 95.857457,126.0061 2.53877,-1.18246 -2.53877,-1.18275 z"
     style="fill:#000000;fill-opacity:1;stroke-width:0.627451"
     id="path424" />
  <path
     d="m 90.779201,128.37161 2.539127,-1.18275 -2.539127,-1.18276 z"
     style="fill:#000000;fill-opacity:1;stroke-width:0.627451"
     id="path423" />
  <path
     d="m 85.701304,126.0061 v 2.3658 l 2.538768,1.18248 2.539129,-1.18277 v -2.36551 l -2.538768,-1.18274 z"
     style="fill:#000000;fill-opacity:1;stroke-width:0.627451"
     id="path422" />
  <path
     d="m 88.240433,124.82336 2.538768,1.18274 v -2.36521 z"
     style="fill:#000000;fill-opacity:1;stroke-width:0.627451"
     id="path421" />
  <path
     d="m 90.779201,123.64089 v 2.36521 l 2.539127,1.18276 2.539129,-1.18276 v -2.36521 l -2.539129,-1.18276 z"
     style="fill:#000000;fill-opacity:1;stroke-width:0.627451"
     id="path420" />
  <path
     d="m 93.318328,122.45813 2.539129,1.18276 v 0 l 2.53877,1.18275 2.539133,-1.18304 v 0 l 2.53912,-1.18276 -5.077893,-2.36523 z"
     style="fill:#000000;fill-opacity:1;stroke-width:0.627451"
     id="path419" />
  <path
     d="m 103.47413,117.72739 -5.077543,2.36522 5.077893,2.36523 5.07754,-2.36523 z"
     style="fill:#000000;fill-opacity:1;stroke-width:0.627451"
     id="path418" />
</svg>
